<svg id="Capa_13" data-name="Capa 13" xmlns="http://www.w3.org/2000/svg" viewBox="0 0 162.76 37.75"><defs><style>.cls-1{fill:#5d6363;}</style></defs><path class="cls-1" d="M370.81,23.66q-23.43-.54-46.88-.4-11.55.07-23.11.26c-3.74.07-7.48.15-11.22.26-2.78.08-6.47-.56-8.76,1.25a1.28,1.28,0,0,0,0-.78c-3.89-13.71-19.68-21.49-32-13.56a17.62,17.62,0,0,0-4.62-3.54C237.1,3.4,227.79,5,220.87,8.6c-6.6,3.47-11.27,9.76-11.61,17.34-.3,6.92,3.56,14.68,10.68,16.52C226.37,44.13,234.55,38,232.07,31c-1.91-5.4-9.77-6.65-13.33-2.31a.62.62,0,0,0,.87.87c3.77-3.47,12-1.24,10.65,4.83-1.36,6.29-8.91,7.39-13.36,3.84-4.62-3.69-6-10.08-4.62-15.65s5.39-9.54,10.32-12c7.71-3.85,18.29-4.32,24.29,1.58-4.58,3.85-9.17,11.78-4.4,17,4.62,5.12,10.45.26,11.2-5.17a16,16,0,0,0-3.15-11.34,16.75,16.75,0,0,1,2-1.09C263.51,6.67,275.21,14,278.31,25a1.34,1.34,0,0,0,2.33.43.46.46,0,0,0,.18.32c2.32,1.7,6,.82,8.78.76l11.88-.29c7.7-.17,15.41-.3,23.11-.35q23.12-.15,46.22.31A1.24,1.24,0,0,0,370.81,23.66ZM250.65,18.59a10.74,10.74,0,0,1,0,7.1c-2,4.93-7.53,2.88-7.48-2,0-3.77,2.4-7.18,5.39-9.6A15.61,15.61,0,0,1,250.65,18.59Z" transform="translate(-209.25 -4.99)"/></svg>